<?xml version="1.0" encoding="utf-8"?>
<!-- Generator: Adobe Illustrator 25.2.0, SVG Export Plug-In . SVG Version: 6.00 Build 0)  -->
<svg version="1.1" id="圖層_1" xmlns="http://www.w3.org/2000/svg" xmlns:xlink="http://www.w3.org/1999/xlink" x="0px" y="0px"
	 viewBox="0 0 240.9 380.3" style="enable-background:new 0 0 240.9 380.3;" xml:space="preserve">
<style type="text/css">
	.st0{fill-rule:evenodd;clip-rule:evenodd;fill:#5FC4BF;}
	.st1{opacity:0.7;}
	.st2{clip-path:url(#SVGID_2_);}
	.st3{fill:#FFFFFF;}
</style>
<g id="圖層_1_1_">
	<path class="st0" d="M240.3,0.3c0,0-138.3-8.9-202.3,67c0,0-79.7,104.4-8,168c8.5,7.6,11.4,23.7,80,20c0,0,58.8,2.3,85,73
		c21.2,57.3,46.3,50,46.3,50L240.3,0.3z"/>
</g>
<g id="圖層_2_1_">
	<g class="st1">
		<g>
			<defs>
				<path id="SVGID_1_" d="M29,276.1c0,57.8,46.9,104.7,104.7,104.7S238.4,334,238.4,276.1s-46.9-104.7-104.7-104.7
					S29,218.3,29,276.1L29,276.1"/>
			</defs>
			<clipPath id="SVGID_2_">
				<use xlink:href="#SVGID_1_"  style="overflow:visible;"/>
			</clipPath>
			<g class="st2">
				<path class="st3" d="M46.6,185.5c0,1.1-0.9,2-2,2s-2-0.9-2-2s0.9-2,2-2S46.6,184.4,46.6,185.5"/>
				<path class="st3" d="M61.9,185.5c0,1.1-0.9,2-2,2s-2-0.9-2-2s0.9-2,2-2S61.9,184.4,61.9,185.5"/>
				<path class="st3" d="M77.3,185.6c0,1.1-0.9,2-2,2s-2-0.9-2-2s0.9-2,2-2S77.3,184.5,77.3,185.6"/>
				<path class="st3" d="M92.6,185.6c0,1.1-0.9,2-2,2s-2-0.9-2-2s0.9-2,2-2S92.6,184.5,92.6,185.6"/>
				<path class="st3" d="M107.9,185.7c0,1.1-0.9,2-2,2s-2-0.9-2-2s0.9-2,2-2S107.9,184.6,107.9,185.7"/>
				<path class="st3" d="M123.3,185.7c0,1.1-0.9,2-2,2s-2-0.9-2-2s0.9-2,2-2S123.3,184.6,123.3,185.7"/>
				<path class="st3" d="M138.6,185.8c0,1.1-0.9,2-2,2s-2-0.9-2-2s0.9-2,2-2S138.6,184.7,138.6,185.8"/>
				<path class="st3" d="M154,185.8c0,1.1-0.9,2-2,2s-2-0.9-2-2s0.9-2,2-2S154,184.7,154,185.8"/>
				<path class="st3" d="M169.3,185.9c0,1.1-0.9,2-2,2s-2-0.9-2-2s0.9-2,2-2S169.3,184.8,169.3,185.9"/>
				<path class="st3" d="M184.7,185.9c0,1.1-0.9,2-2,2s-2-0.9-2-2s0.9-2,2-2S184.7,184.8,184.7,185.9"/>
				<path class="st3" d="M38.9,195.5c0,1.1-0.9,2-2,2s-2-0.9-2-2s0.9-2,2-2S38.9,194.4,38.9,195.5"/>
				<path class="st3" d="M54.3,195.5c0,1.1-0.9,2-2,2s-2-0.9-2-2s0.9-2,2-2S54.3,194.4,54.3,195.5"/>
				<path class="st3" d="M69.6,195.6c0,1.1-0.9,2-2,2s-2-0.9-2-2s0.9-2,2-2S69.6,194.5,69.6,195.6"/>
				<path class="st3" d="M84.9,195.6c0,1.1-0.9,2-2,2s-2-0.9-2-2s0.9-2,2-2S84.9,194.5,84.9,195.6"/>
				<path class="st3" d="M100.3,195.7c0,1.1-0.9,2-2,2s-2-0.9-2-2s0.9-2,2-2S100.3,194.6,100.3,195.7"/>
				<path class="st3" d="M115.6,195.7c0,1.1-0.9,2-2,2s-2-0.9-2-2s0.9-2,2-2S115.6,194.6,115.6,195.7"/>
				<path class="st3" d="M131,195.8c0,1.1-0.9,2-2,2s-2-0.9-2-2s0.9-2,2-2S131,194.7,131,195.8"/>
				<path class="st3" d="M146.3,195.8c0,1.1-0.9,2-2,2s-2-0.9-2-2s0.9-2,2-2S146.3,194.7,146.3,195.8"/>
				<path class="st3" d="M161.6,195.9c0,1.1-0.9,2-2,2s-2-0.9-2-2s0.9-2,2-2S161.6,194.7,161.6,195.9"/>
				<path class="st3" d="M177,195.9c0,1.1-0.9,2-2,2s-2-0.9-2-2s0.9-2,2-2S177,194.8,177,195.9"/>
				<path class="st3" d="M46.6,207.2c0,1.1-0.9,2-2,2s-2-0.9-2-2s0.9-2,2-2S46.6,206.1,46.6,207.2"/>
				<path class="st3" d="M61.9,207.3c0,1.1-0.9,2-2,2s-2-0.9-2-2s0.9-2,2-2S61.9,206.2,61.9,207.3"/>
				<path class="st3" d="M77.3,207.3c0,1.1-0.9,2-2,2s-2-0.9-2-2s0.9-2,2-2S77.3,206.2,77.3,207.3"/>
				<path class="st3" d="M92.6,207.4c0,1.1-0.9,2-2,2s-2-0.9-2-2s0.9-2,2-2S92.6,206.3,92.6,207.4"/>
				<path class="st3" d="M107.9,207.4c0,1.1-0.9,2-2,2s-2-0.9-2-2s0.9-2,2-2S107.9,206.3,107.9,207.4"/>
				<path class="st3" d="M123.3,207.5c0,1.1-0.9,2-2,2s-2-0.9-2-2s0.9-2,2-2S123.3,206.4,123.3,207.5"/>
				<path class="st3" d="M138.6,207.5c0,1.1-0.9,2-2,2s-2-0.9-2-2s0.9-2,2-2S138.6,206.4,138.6,207.5"/>
				<path class="st3" d="M154,207.6c0,1.1-0.9,2-2,2s-2-0.9-2-2s0.9-2,2-2S154,206.5,154,207.6"/>
				<path class="st3" d="M169.3,207.6c0,1.1-0.9,2-2,2s-2-0.9-2-2s0.9-2,2-2S169.3,206.5,169.3,207.6"/>
				<path class="st3" d="M184.7,207.7c0,1.1-0.9,2-2,2s-2-0.9-2-2s0.9-2,2-2S184.7,206.5,184.7,207.7"/>
				<path class="st3" d="M38.9,217.2c0,1.1-0.9,2-2,2s-2-0.9-2-2s0.9-2,2-2S38.9,216.1,38.9,217.2"/>
				<path class="st3" d="M54.3,217.3c0,1.1-0.9,2-2,2s-2-0.9-2-2s0.9-2,2-2S54.3,216.2,54.3,217.3"/>
				<path class="st3" d="M69.6,217.3c0,1.1-0.9,2-2,2s-2-0.9-2-2s0.9-2,2-2S69.6,216.2,69.6,217.3"/>
				<path class="st3" d="M84.9,217.3c0,1.1-0.9,2-2,2s-2-0.9-2-2s0.9-2,2-2S84.9,216.2,84.9,217.3"/>
				<path class="st3" d="M100.3,217.4c0,1.1-0.9,2-2,2s-2-0.9-2-2s0.9-2,2-2S100.3,216.3,100.3,217.4"/>
				<path class="st3" d="M115.6,217.4c0,1.1-0.9,2-2,2s-2-0.9-2-2s0.9-2,2-2S115.6,216.3,115.6,217.4"/>
				<path class="st3" d="M131,217.5c0,1.1-0.9,2-2,2s-2-0.9-2-2s0.9-2,2-2S131,216.4,131,217.5"/>
				<path class="st3" d="M146.3,217.5c0,1.1-0.9,2-2,2s-2-0.9-2-2s0.9-2,2-2S146.3,216.4,146.3,217.5"/>
				<path class="st3" d="M161.6,217.6c0,1.1-0.9,2-2,2s-2-0.9-2-2s0.9-2,2-2S161.6,216.5,161.6,217.6"/>
				<path class="st3" d="M177,217.6c0,1.1-0.9,2-2,2s-2-0.9-2-2s0.9-2,2-2S177,216.5,177,217.6"/>
				<path class="st3" d="M46.6,229c0,1.1-0.9,2-2,2s-2-0.9-2-2s0.9-2,2-2S46.6,227.9,46.6,229"/>
				<path class="st3" d="M61.9,229c0,1.1-0.9,2-2,2s-2-0.9-2-2s0.9-2,2-2S61.9,227.9,61.9,229"/>
				<path class="st3" d="M77.3,229.1c0,1.1-0.9,2-2,2s-2-0.9-2-2s0.9-2,2-2S77.3,228,77.3,229.1"/>
				<path class="st3" d="M92.6,229.1c0,1.1-0.9,2-2,2s-2-0.9-2-2s0.9-2,2-2S92.6,228,92.6,229.1"/>
				<path class="st3" d="M107.9,229.2c0,1.1-0.9,2-2,2s-2-0.9-2-2s0.9-2,2-2S107.9,228,107.9,229.2"/>
				<path class="st3" d="M123.3,229.2c0,1.1-0.9,2-2,2s-2-0.9-2-2s0.9-2,2-2S123.3,228.1,123.3,229.2"/>
				<path class="st3" d="M138.6,229.2c0,1.1-0.9,2-2,2s-2-0.9-2-2s0.9-2,2-2S138.6,228.1,138.6,229.2"/>
				<path class="st3" d="M154,229.3c0,1.1-0.9,2-2,2s-2-0.9-2-2s0.9-2,2-2S154,228.2,154,229.3"/>
				<path class="st3" d="M169.3,229.3c0,1.1-0.9,2-2,2s-2-0.9-2-2s0.9-2,2-2S169.3,228.2,169.3,229.3"/>
				<path class="st3" d="M184.7,229.4c0,1.1-0.9,2-2,2s-2-0.9-2-2s0.9-2,2-2S184.7,228.3,184.7,229.4"/>
				<path class="st3" d="M38.9,238.9c0,1.1-0.9,2-2,2s-2-0.9-2-2s0.9-2,2-2S38.9,237.8,38.9,238.9"/>
				<path class="st3" d="M54.3,239c0,1.1-0.9,2-2,2s-2-0.9-2-2s0.9-2,2-2S54.3,237.9,54.3,239"/>
				<path class="st3" d="M69.6,239c0,1.1-0.9,2-2,2s-2-0.9-2-2s0.9-2,2-2S69.6,237.9,69.6,239"/>
				<path class="st3" d="M84.9,239.1c0,1.1-0.9,2-2,2s-2-0.9-2-2s0.9-2,2-2S84.9,238,84.9,239.1"/>
				<path class="st3" d="M100.3,239.1c0,1.1-0.9,2-2,2s-2-0.9-2-2s0.9-2,2-2S100.3,238,100.3,239.1"/>
				<path class="st3" d="M115.6,239.2c0,1.1-0.9,2-2,2s-2-0.9-2-2s0.9-2,2-2S115.6,238.1,115.6,239.2"/>
				<path class="st3" d="M131,239.2c0,1.1-0.9,2-2,2s-2-0.9-2-2s0.9-2,2-2S131,238.1,131,239.2"/>
				<path class="st3" d="M146.3,239.3c0,1.1-0.9,2-2,2s-2-0.9-2-2s0.9-2,2-2S146.3,238.2,146.3,239.3"/>
				<path class="st3" d="M161.6,239.3c0,1.1-0.9,2-2,2s-2-0.9-2-2s0.9-2,2-2S161.6,238.2,161.6,239.3"/>
				<path class="st3" d="M177,239.3c0,1.1-0.9,2-2,2s-2-0.9-2-2s0.9-2,2-2S177,238.2,177,239.3"/>
				<path class="st3" d="M46.6,250.7c0,1.1-0.9,2-2,2s-2-0.9-2-2s0.9-2,2-2S46.6,249.6,46.6,250.7"/>
				<path class="st3" d="M61.9,250.8c0,1.1-0.9,2-2,2s-2-0.9-2-2s0.9-2,2-2S61.9,249.6,61.9,250.8"/>
				<path class="st3" d="M77.3,250.8c0,1.1-0.9,2-2,2s-2-0.9-2-2s0.9-2,2-2S77.3,249.7,77.3,250.8"/>
				<path class="st3" d="M92.6,250.8c0,1.1-0.9,2-2,2s-2-0.9-2-2s0.9-2,2-2S92.6,249.7,92.6,250.8"/>
				<path class="st3" d="M107.9,250.9c0,1.1-0.9,2-2,2s-2-0.9-2-2s0.9-2,2-2S107.9,249.8,107.9,250.9"/>
				<path class="st3" d="M123.3,250.9c0,1.1-0.9,2-2,2s-2-0.9-2-2s0.9-2,2-2S123.3,249.8,123.3,250.9"/>
				<path class="st3" d="M138.6,251c0,1.1-0.9,2-2,2s-2-0.9-2-2s0.9-2,2-2S138.6,249.9,138.6,251"/>
				<path class="st3" d="M154,251c0,1.1-0.9,2-2,2s-2-0.9-2-2s0.9-2,2-2S154,249.9,154,251"/>
				<path class="st3" d="M169.3,251.1c0,1.1-0.9,2-2,2s-2-0.9-2-2s0.9-2,2-2S169.3,250,169.3,251.1"/>
				<path class="st3" d="M184.7,251.1c0,1.1-0.9,2-2,2s-2-0.9-2-2s0.9-2,2-2S184.7,250,184.7,251.1"/>
				<path class="st3" d="M38.9,260.7c0,1.1-0.9,2-2,2s-2-0.9-2-2s0.9-2,2-2S38.9,259.6,38.9,260.7"/>
				<path class="st3" d="M54.3,260.7c0,1.1-0.9,2-2,2s-2-0.9-2-2s0.9-2,2-2S54.3,259.6,54.3,260.7"/>
				<path class="st3" d="M69.6,260.8c0,1.1-0.9,2-2,2s-2-0.9-2-2s0.9-2,2-2S69.6,259.7,69.6,260.8"/>
				<path class="st3" d="M84.9,260.8c0,1.1-0.9,2-2,2s-2-0.9-2-2s0.9-2,2-2S84.9,259.7,84.9,260.8"/>
				<path class="st3" d="M100.3,260.9c0,1.1-0.9,2-2,2s-2-0.9-2-2s0.9-2,2-2S100.3,259.8,100.3,260.9"/>
				<path class="st3" d="M115.6,260.9c0,1.1-0.9,2-2,2s-2-0.9-2-2s0.9-2,2-2S115.6,259.8,115.6,260.9"/>
				<path class="st3" d="M131,261c0,1.1-0.9,2-2,2s-2-0.9-2-2s0.9-2,2-2S131,259.8,131,261"/>
				<path class="st3" d="M146.3,261c0,1.1-0.9,2-2,2s-2-0.9-2-2s0.9-2,2-2S146.3,259.9,146.3,261"/>
				<path class="st3" d="M161.6,261c0,1.1-0.9,2-2,2s-2-0.9-2-2s0.9-2,2-2S161.6,259.9,161.6,261"/>
				<path class="st3" d="M177,261.1c0,1.1-0.9,2-2,2s-2-0.9-2-2s0.9-2,2-2S177,260,177,261.1"/>
				<path class="st3" d="M46.6,272.4c0,1.1-0.9,2-2,2s-2-0.9-2-2s0.9-2,2-2S46.6,271.3,46.6,272.4"/>
				<path class="st3" d="M61.9,272.5c0,1.1-0.9,2-2,2s-2-0.9-2-2s0.9-2,2-2S61.9,271.4,61.9,272.5"/>
				<path class="st3" d="M77.3,272.5c0,1.1-0.9,2-2,2s-2-0.9-2-2s0.9-2,2-2S77.3,271.4,77.3,272.5"/>
				<path class="st3" d="M92.6,272.6c0,1.1-0.9,2-2,2s-2-0.9-2-2s0.9-2,2-2S92.6,271.5,92.6,272.6"/>
				<path class="st3" d="M107.9,272.6c0,1.1-0.9,2-2,2s-2-0.9-2-2s0.9-2,2-2S107.9,271.5,107.9,272.6"/>
				<path class="st3" d="M123.3,272.7c0,1.1-0.9,2-2,2s-2-0.9-2-2s0.9-2,2-2S123.3,271.6,123.3,272.7"/>
				<path class="st3" d="M138.6,272.7c0,1.1-0.9,2-2,2s-2-0.9-2-2s0.9-2,2-2S138.6,271.6,138.6,272.7"/>
				<path class="st3" d="M154,272.8c0,1.1-0.9,2-2,2s-2-0.9-2-2s0.9-2,2-2S154,271.6,154,272.8"/>
				<path class="st3" d="M169.3,272.8c0,1.1-0.9,2-2,2s-2-0.9-2-2s0.9-2,2-2S169.3,271.7,169.3,272.8"/>
				<path class="st3" d="M184.7,272.9c0,1.1-0.9,2-2,2s-2-0.9-2-2s0.9-2,2-2S184.7,271.7,184.7,272.9"/>
				<path class="st3" d="M38.9,282.4c0,1.1-0.9,2-2,2s-2-0.9-2-2s0.9-2,2-2S38.9,281.3,38.9,282.4"/>
				<path class="st3" d="M54.3,282.5c0,1.1-0.9,2-2,2s-2-0.9-2-2s0.9-2,2-2S54.3,281.3,54.3,282.5"/>
				<path class="st3" d="M69.6,282.5c0,1.1-0.9,2-2,2s-2-0.9-2-2s0.9-2,2-2S69.6,281.4,69.6,282.5"/>
				<path class="st3" d="M84.9,282.5c0,1.1-0.9,2-2,2s-2-0.9-2-2s0.9-2,2-2S84.9,281.4,84.9,282.5"/>
				<path class="st3" d="M100.3,282.6c0,1.1-0.9,2-2,2s-2-0.9-2-2s0.9-2,2-2S100.3,281.5,100.3,282.6"/>
				<path class="st3" d="M115.6,282.6c0,1.1-0.9,2-2,2s-2-0.9-2-2s0.9-2,2-2S115.6,281.5,115.6,282.6"/>
				<path class="st3" d="M131,282.7c0,1.1-0.9,2-2,2s-2-0.9-2-2s0.9-2,2-2S131,281.6,131,282.7"/>
				<path class="st3" d="M146.3,282.7c0,1.1-0.9,2-2,2s-2-0.9-2-2s0.9-2,2-2S146.3,281.6,146.3,282.7"/>
				<path class="st3" d="M161.6,282.8c0,1.1-0.9,2-2,2s-2-0.9-2-2s0.9-2,2-2S161.6,281.7,161.6,282.8"/>
				<path class="st3" d="M177,282.8c0,1.1-0.9,2-2,2s-2-0.9-2-2s0.9-2,2-2S177,281.7,177,282.8"/>
				<path class="st3" d="M46.6,294.2c0,1.1-0.9,2-2,2s-2-0.9-2-2s0.9-2,2-2S46.6,293.1,46.6,294.2"/>
				<path class="st3" d="M61.9,294.2c0,1.1-0.9,2-2,2s-2-0.9-2-2s0.9-2,2-2S61.9,293.1,61.9,294.2"/>
				<path class="st3" d="M77.3,294.3c0,1.1-0.9,2-2,2s-2-0.9-2-2s0.9-2,2-2S77.3,293.2,77.3,294.3"/>
				<path class="st3" d="M92.6,294.3c0,1.1-0.9,2-2,2s-2-0.9-2-2s0.9-2,2-2S92.6,293.2,92.6,294.3"/>
				<path class="st3" d="M107.9,294.3c0,1.1-0.9,2-2,2s-2-0.9-2-2s0.9-2,2-2S107.9,293.2,107.9,294.3"/>
				<path class="st3" d="M123.3,294.4c0,1.1-0.9,2-2,2s-2-0.9-2-2s0.9-2,2-2S123.3,293.3,123.3,294.4"/>
				<path class="st3" d="M138.6,294.4c0,1.1-0.9,2-2,2s-2-0.9-2-2s0.9-2,2-2S138.6,293.3,138.6,294.4"/>
				<path class="st3" d="M154,294.5c0,1.1-0.9,2-2,2s-2-0.9-2-2s0.9-2,2-2S154,293.4,154,294.5"/>
				<path class="st3" d="M169.3,294.5c0,1.1-0.9,2-2,2s-2-0.9-2-2s0.9-2,2-2S169.3,293.4,169.3,294.5"/>
				<path class="st3" d="M184.7,294.6c0,1.1-0.9,2-2,2s-2-0.9-2-2s0.9-2,2-2S184.7,293.5,184.7,294.6"/>
				<path class="st3" d="M38.9,304.1c0,1.1-0.9,2-2,2s-2-0.9-2-2s0.9-2,2-2S38.9,303,38.9,304.1"/>
				<path class="st3" d="M54.3,304.2c0,1.1-0.9,2-2,2s-2-0.9-2-2s0.9-2,2-2S54.3,303.1,54.3,304.2"/>
				<path class="st3" d="M69.6,304.2c0,1.1-0.9,2-2,2s-2-0.9-2-2s0.9-2,2-2S69.6,303.1,69.6,304.2"/>
				<path class="st3" d="M84.9,304.3c0,1.1-0.9,2-2,2s-2-0.9-2-2s0.9-2,2-2S84.9,303.2,84.9,304.3"/>
				<path class="st3" d="M100.3,304.3c0,1.1-0.9,2-2,2s-2-0.9-2-2s0.9-2,2-2S100.3,303.2,100.3,304.3"/>
				<path class="st3" d="M115.6,304.4c0,1.1-0.9,2-2,2s-2-0.9-2-2s0.9-2,2-2S115.6,303.3,115.6,304.4"/>
				<path class="st3" d="M131,304.4c0,1.1-0.9,2-2,2s-2-0.9-2-2s0.9-2,2-2S131,303.3,131,304.4"/>
				<path class="st3" d="M146.3,304.5c0,1.1-0.9,2-2,2s-2-0.9-2-2s0.9-2,2-2S146.3,303.4,146.3,304.5"/>
				<path class="st3" d="M161.6,304.5c0,1.1-0.9,2-2,2s-2-0.9-2-2s0.9-2,2-2S161.6,303.4,161.6,304.5"/>
				<path class="st3" d="M177,304.5c0,1.1-0.9,2-2,2s-2-0.9-2-2s0.9-2,2-2S177,303.4,177,304.5"/>
				<path class="st3" d="M46.6,315.9c0,1.1-0.9,2-2,2s-2-0.9-2-2s0.9-2,2-2S46.6,314.8,46.6,315.9"/>
				<path class="st3" d="M61.9,315.9c0,1.1-0.9,2-2,2s-2-0.9-2-2s0.9-2,2-2S61.9,314.8,61.9,315.9"/>
				<path class="st3" d="M77.3,316c0,1.1-0.9,2-2,2s-2-0.9-2-2s0.9-2,2-2S77.3,314.9,77.3,316"/>
				<path class="st3" d="M92.6,316c0,1.1-0.9,2-2,2s-2-0.9-2-2s0.9-2,2-2S92.6,314.9,92.6,316"/>
				<path class="st3" d="M107.9,316.1c0,1.1-0.9,2-2,2s-2-0.9-2-2s0.9-2,2-2S107.9,315,107.9,316.1"/>
				<path class="st3" d="M123.3,316.1c0,1.1-0.9,2-2,2s-2-0.9-2-2s0.9-2,2-2S123.3,315,123.3,316.1"/>
				<path class="st3" d="M138.6,316.2c0,1.1-0.9,2-2,2s-2-0.9-2-2s0.9-2,2-2S138.6,315.1,138.6,316.2"/>
				<path class="st3" d="M154,316.2c0,1.1-0.9,2-2,2s-2-0.9-2-2s0.9-2,2-2S154,315.1,154,316.2"/>
				<path class="st3" d="M169.3,316.3c0,1.1-0.9,2-2,2s-2-0.9-2-2s0.9-2,2-2S169.3,315.2,169.3,316.3"/>
				<path class="st3" d="M184.7,316.3c0,1.1-0.9,2-2,2s-2-0.9-2-2s0.9-2,2-2S184.7,315.2,184.7,316.3"/>
				<path class="st3" d="M38.9,325.9c0,1.1-0.9,2-2,2s-2-0.9-2-2s0.9-2,2-2S38.9,324.8,38.9,325.9"/>
				<path class="st3" d="M54.3,325.9c0,1.1-0.9,2-2,2s-2-0.9-2-2s0.9-2,2-2S54.3,324.8,54.3,325.9"/>
				<path class="st3" d="M69.6,326c0,1.1-0.9,2-2,2s-2-0.9-2-2s0.9-2,2-2S69.6,324.9,69.6,326"/>
				<path class="st3" d="M84.9,326c0,1.1-0.9,2-2,2s-2-0.9-2-2s0.9-2,2-2S84.9,324.9,84.9,326"/>
				<path class="st3" d="M100.3,326c0,1.1-0.9,2-2,2s-2-0.9-2-2s0.9-2,2-2S100.3,324.9,100.3,326"/>
				<path class="st3" d="M115.6,326.1c0,1.1-0.9,2-2,2s-2-0.9-2-2s0.9-2,2-2S115.6,325,115.6,326.1"/>
				<path class="st3" d="M131,326.2c0,1.1-0.9,2-2,2s-2-0.9-2-2s0.9-2,2-2S131,325,131,326.2"/>
				<path class="st3" d="M146.3,326.2c0,1.1-0.9,2-2,2s-2-0.9-2-2s0.9-2,2-2S146.3,325.1,146.3,326.2"/>
				<path class="st3" d="M161.6,326.2c0,1.1-0.9,2-2,2s-2-0.9-2-2s0.9-2,2-2S161.6,325.1,161.6,326.2"/>
				<path class="st3" d="M177,326.3c0,1.1-0.9,2-2,2s-2-0.9-2-2s0.9-2,2-2S177,325.2,177,326.3"/>
				<path class="st3" d="M200.3,185.5c0,1.1-0.9,2-2,2s-2-0.9-2-2s0.9-2,2-2S200.3,184.4,200.3,185.5"/>
				<path class="st3" d="M215.6,185.5c0,1.1-0.9,2-2,2s-2-0.9-2-2s0.9-2,2-2S215.6,184.4,215.6,185.5"/>
				<path class="st3" d="M230.9,185.6c0,1.1-0.9,2-2,2s-2-0.9-2-2s0.9-2,2-2S230.9,184.5,230.9,185.6"/>
				<path class="st3" d="M192.6,195.5c0,1.1-0.9,2-2,2s-2-0.9-2-2s0.9-2,2-2S192.6,194.4,192.6,195.5"/>
				<path class="st3" d="M207.9,195.5c0,1.1-0.9,2-2,2s-2-0.9-2-2s0.9-2,2-2S207.9,194.4,207.9,195.5"/>
				<path class="st3" d="M223.3,195.6c0,1.1-0.9,2-2,2s-2-0.9-2-2s0.9-2,2-2S223.3,194.5,223.3,195.6"/>
				<path class="st3" d="M238.6,195.6c0,1.1-0.9,2-2,2s-2-0.9-2-2s0.9-2,2-2S238.6,194.5,238.6,195.6"/>
				<path class="st3" d="M200.3,207.2c0,1.1-0.9,2-2,2s-2-0.9-2-2s0.9-2,2-2S200.3,206.1,200.3,207.2"/>
				<path class="st3" d="M215.6,207.3c0,1.1-0.9,2-2,2s-2-0.9-2-2s0.9-2,2-2S215.6,206.2,215.6,207.3"/>
				<path class="st3" d="M230.9,207.3c0,1.1-0.9,2-2,2s-2-0.9-2-2s0.9-2,2-2S230.9,206.2,230.9,207.3"/>
				<path class="st3" d="M192.6,217.2c0,1.1-0.9,2-2,2s-2-0.9-2-2s0.9-2,2-2S192.6,216.1,192.6,217.2"/>
				<path class="st3" d="M207.9,217.3c0,1.1-0.9,2-2,2s-2-0.9-2-2s0.9-2,2-2S207.9,216.2,207.9,217.3"/>
				<path class="st3" d="M223.3,217.3c0,1.1-0.9,2-2,2s-2-0.9-2-2s0.9-2,2-2S223.3,216.2,223.3,217.3"/>
				<path class="st3" d="M238.6,217.3c0,1.1-0.9,2-2,2s-2-0.9-2-2s0.9-2,2-2S238.6,216.2,238.6,217.3"/>
				<path class="st3" d="M200.3,229c0,1.1-0.9,2-2,2s-2-0.9-2-2s0.9-2,2-2S200.3,227.9,200.3,229"/>
				<path class="st3" d="M215.6,229c0,1.1-0.9,2-2,2s-2-0.9-2-2s0.9-2,2-2S215.6,227.9,215.6,229"/>
				<path class="st3" d="M230.9,229.1c0,1.1-0.9,2-2,2s-2-0.9-2-2s0.9-2,2-2S230.9,228,230.9,229.1"/>
				<path class="st3" d="M192.6,238.9c0,1.1-0.9,2-2,2s-2-0.9-2-2s0.9-2,2-2S192.6,237.8,192.6,238.9"/>
				<path class="st3" d="M207.9,239c0,1.1-0.9,2-2,2s-2-0.9-2-2s0.9-2,2-2S207.9,237.9,207.9,239"/>
				<path class="st3" d="M223.3,239c0,1.1-0.9,2-2,2s-2-0.9-2-2s0.9-2,2-2S223.3,237.9,223.3,239"/>
				<path class="st3" d="M238.6,239.1c0,1.1-0.9,2-2,2s-2-0.9-2-2s0.9-2,2-2S238.6,238,238.6,239.1"/>
				<path class="st3" d="M200.3,250.7c0,1.1-0.9,2-2,2s-2-0.9-2-2s0.9-2,2-2S200.3,249.6,200.3,250.7"/>
				<path class="st3" d="M215.6,250.8c0,1.1-0.9,2-2,2s-2-0.9-2-2s0.9-2,2-2S215.6,249.6,215.6,250.8"/>
				<path class="st3" d="M230.9,250.8c0,1.1-0.9,2-2,2s-2-0.9-2-2s0.9-2,2-2S230.9,249.7,230.9,250.8"/>
				<path class="st3" d="M192.6,260.7c0,1.1-0.9,2-2,2s-2-0.9-2-2s0.9-2,2-2S192.6,259.6,192.6,260.7"/>
				<path class="st3" d="M207.9,260.7c0,1.1-0.9,2-2,2s-2-0.9-2-2s0.9-2,2-2S207.9,259.6,207.9,260.7"/>
				<path class="st3" d="M223.3,260.8c0,1.1-0.9,2-2,2s-2-0.9-2-2s0.9-2,2-2S223.3,259.7,223.3,260.8"/>
				<path class="st3" d="M238.6,260.8c0,1.1-0.9,2-2,2s-2-0.9-2-2s0.9-2,2-2S238.6,259.7,238.6,260.8"/>
				<path class="st3" d="M200.3,272.4c0,1.1-0.9,2-2,2s-2-0.9-2-2s0.9-2,2-2S200.3,271.3,200.3,272.4"/>
				<path class="st3" d="M215.6,272.5c0,1.1-0.9,2-2,2s-2-0.9-2-2s0.9-2,2-2S215.6,271.4,215.6,272.5"/>
				<path class="st3" d="M230.9,272.5c0,1.1-0.9,2-2,2s-2-0.9-2-2s0.9-2,2-2S230.9,271.4,230.9,272.5"/>
				<path class="st3" d="M192.6,282.4c0,1.1-0.9,2-2,2s-2-0.9-2-2s0.9-2,2-2S192.6,281.3,192.6,282.4"/>
				<path class="st3" d="M207.9,282.5c0,1.1-0.9,2-2,2s-2-0.9-2-2s0.9-2,2-2S207.9,281.3,207.9,282.5"/>
				<path class="st3" d="M223.3,282.5c0,1.1-0.9,2-2,2s-2-0.9-2-2s0.9-2,2-2S223.3,281.4,223.3,282.5"/>
				<path class="st3" d="M238.6,282.5c0,1.1-0.9,2-2,2s-2-0.9-2-2s0.9-2,2-2S238.6,281.4,238.6,282.5"/>
				<path class="st3" d="M200.3,294.2c0,1.1-0.9,2-2,2s-2-0.9-2-2s0.9-2,2-2S200.3,293.1,200.3,294.2"/>
				<path class="st3" d="M215.6,294.2c0,1.1-0.9,2-2,2s-2-0.9-2-2s0.9-2,2-2S215.6,293.1,215.6,294.2"/>
				<path class="st3" d="M230.9,294.3c0,1.1-0.9,2-2,2s-2-0.9-2-2s0.9-2,2-2S230.9,293.2,230.9,294.3"/>
				<path class="st3" d="M192.6,304.1c0,1.1-0.9,2-2,2s-2-0.9-2-2s0.9-2,2-2S192.6,303,192.6,304.1"/>
				<path class="st3" d="M207.9,304.2c0,1.1-0.9,2-2,2s-2-0.9-2-2s0.9-2,2-2S207.9,303.1,207.9,304.2"/>
				<path class="st3" d="M223.3,304.2c0,1.1-0.9,2-2,2s-2-0.9-2-2s0.9-2,2-2S223.3,303.1,223.3,304.2"/>
				<path class="st3" d="M238.6,304.3c0,1.1-0.9,2-2,2s-2-0.9-2-2s0.9-2,2-2S238.6,303.2,238.6,304.3"/>
				<path class="st3" d="M200.3,315.9c0,1.1-0.9,2-2,2s-2-0.9-2-2s0.9-2,2-2S200.3,314.8,200.3,315.9"/>
				<path class="st3" d="M215.6,315.9c0,1.1-0.9,2-2,2s-2-0.9-2-2s0.9-2,2-2S215.6,314.8,215.6,315.9"/>
				<path class="st3" d="M230.9,316c0,1.1-0.9,2-2,2s-2-0.9-2-2s0.9-2,2-2S230.9,314.9,230.9,316"/>
				<path class="st3" d="M192.6,325.9c0,1.1-0.9,2-2,2s-2-0.9-2-2s0.9-2,2-2S192.6,324.8,192.6,325.9"/>
				<path class="st3" d="M207.9,325.9c0,1.1-0.9,2-2,2s-2-0.9-2-2s0.9-2,2-2S207.9,324.8,207.9,325.9"/>
				<path class="st3" d="M223.3,326c0,1.1-0.9,2-2,2s-2-0.9-2-2s0.9-2,2-2S223.3,324.9,223.3,326"/>
				<path class="st3" d="M238.6,326c0,1.1-0.9,2-2,2s-2-0.9-2-2s0.9-2,2-2S238.6,324.9,238.6,326"/>
				<path class="st3" d="M46.6,336.3c0,1.1-0.9,2-2,2s-2-0.9-2-2s0.9-2,2-2S46.6,335.2,46.6,336.3"/>
				<path class="st3" d="M61.9,336.4c0,1.1-0.9,2-2,2s-2-0.9-2-2s0.9-2,2-2S61.9,335.3,61.9,336.4"/>
				<path class="st3" d="M77.3,336.5c0,1.1-0.9,2-2,2s-2-0.9-2-2s0.9-2,2-2S77.3,335.3,77.3,336.5"/>
				<path class="st3" d="M92.6,336.5c0,1.1-0.9,2-2,2s-2-0.9-2-2s0.9-2,2-2S92.6,335.4,92.6,336.5"/>
				<path class="st3" d="M107.9,336.5c0,1.1-0.9,2-2,2s-2-0.9-2-2s0.9-2,2-2S107.9,335.4,107.9,336.5"/>
				<path class="st3" d="M123.3,336.6c0,1.1-0.9,2-2,2s-2-0.9-2-2s0.9-2,2-2S123.3,335.5,123.3,336.6"/>
				<path class="st3" d="M138.6,336.6c0,1.1-0.9,2-2,2s-2-0.9-2-2s0.9-2,2-2S138.6,335.5,138.6,336.6"/>
				<path class="st3" d="M154,336.7c0,1.1-0.9,2-2,2s-2-0.9-2-2s0.9-2,2-2S154,335.6,154,336.7"/>
				<path class="st3" d="M169.3,336.7c0,1.1-0.9,2-2,2s-2-0.9-2-2s0.9-2,2-2S169.3,335.6,169.3,336.7"/>
				<path class="st3" d="M184.7,336.8c0,1.1-0.9,2-2,2s-2-0.9-2-2s0.9-2,2-2S184.7,335.7,184.7,336.8"/>
				<path class="st3" d="M38.9,346.3c0,1.1-0.9,2-2,2s-2-0.9-2-2s0.9-2,2-2S38.9,345.2,38.9,346.3"/>
				<path class="st3" d="M54.3,346.4c0,1.1-0.9,2-2,2s-2-0.9-2-2s0.9-2,2-2S54.3,345.3,54.3,346.4"/>
				<path class="st3" d="M69.6,346.4c0,1.1-0.9,2-2,2s-2-0.9-2-2s0.9-2,2-2S69.6,345.3,69.6,346.4"/>
				<path class="st3" d="M84.9,346.5c0,1.1-0.9,2-2,2s-2-0.9-2-2s0.9-2,2-2S84.9,345.4,84.9,346.5"/>
				<path class="st3" d="M100.3,346.5c0,1.1-0.9,2-2,2s-2-0.9-2-2s0.9-2,2-2S100.3,345.4,100.3,346.5"/>
				<path class="st3" d="M115.6,346.6c0,1.1-0.9,2-2,2s-2-0.9-2-2s0.9-2,2-2S115.6,345.5,115.6,346.6"/>
				<path class="st3" d="M131,346.6c0,1.1-0.9,2-2,2s-2-0.9-2-2s0.9-2,2-2S131,345.5,131,346.6"/>
				<path class="st3" d="M146.3,346.7c0,1.1-0.9,2-2,2s-2-0.9-2-2s0.9-2,2-2S146.3,345.6,146.3,346.7"/>
				<path class="st3" d="M161.6,346.7c0,1.1-0.9,2-2,2s-2-0.9-2-2s0.9-2,2-2S161.6,345.6,161.6,346.7"/>
				<path class="st3" d="M177,346.8c0,1.1-0.9,2-2,2s-2-0.9-2-2s0.9-2,2-2S177,345.6,177,346.8"/>
				<path class="st3" d="M46.6,358.1c0,1.1-0.9,2-2,2s-2-0.9-2-2s0.9-2,2-2S46.6,357,46.6,358.1"/>
				<path class="st3" d="M61.9,358.1c0,1.1-0.9,2-2,2s-2-0.9-2-2s0.9-2,2-2S61.9,357,61.9,358.1"/>
				<path class="st3" d="M77.3,358.2c0,1.1-0.9,2-2,2s-2-0.9-2-2s0.9-2,2-2S77.3,357.1,77.3,358.2"/>
				<path class="st3" d="M92.6,358.2c0,1.1-0.9,2-2,2s-2-0.9-2-2s0.9-2,2-2S92.6,357.1,92.6,358.2"/>
				<path class="st3" d="M107.9,358.3c0,1.1-0.9,2-2,2s-2-0.9-2-2s0.9-2,2-2S107.9,357.2,107.9,358.3"/>
				<path class="st3" d="M123.3,358.3c0,1.1-0.9,2-2,2s-2-0.9-2-2s0.9-2,2-2S123.3,357.2,123.3,358.3"/>
				<path class="st3" d="M138.6,358.4c0,1.1-0.9,2-2,2s-2-0.9-2-2s0.9-2,2-2S138.6,357.3,138.6,358.4"/>
				<path class="st3" d="M154,358.4c0,1.1-0.9,2-2,2s-2-0.9-2-2s0.9-2,2-2S154,357.3,154,358.4"/>
				<path class="st3" d="M169.3,358.5c0,1.1-0.9,2-2,2s-2-0.9-2-2s0.9-2,2-2S169.3,357.4,169.3,358.5"/>
				<path class="st3" d="M184.7,358.5c0,1.1-0.9,2-2,2s-2-0.9-2-2s0.9-2,2-2S184.7,357.4,184.7,358.5"/>
				<path class="st3" d="M38.9,368.1c0,1.1-0.9,2-2,2s-2-0.9-2-2s0.9-2,2-2S38.9,367,38.9,368.1"/>
				<path class="st3" d="M54.3,368.1c0,1.1-0.9,2-2,2s-2-0.9-2-2s0.9-2,2-2S54.3,367,54.3,368.1"/>
				<path class="st3" d="M69.6,368.2c0,1.1-0.9,2-2,2s-2-0.9-2-2s0.9-2,2-2S69.6,367.1,69.6,368.2"/>
				<path class="st3" d="M84.9,368.2c0,1.1-0.9,2-2,2s-2-0.9-2-2s0.9-2,2-2S84.9,367.1,84.9,368.2"/>
				<path class="st3" d="M100.3,368.2c0,1.1-0.9,2-2,2s-2-0.9-2-2s0.9-2,2-2S100.3,367.1,100.3,368.2"/>
				<path class="st3" d="M115.6,368.3c0,1.1-0.9,2-2,2s-2-0.9-2-2s0.9-2,2-2S115.6,367.2,115.6,368.3"/>
				<path class="st3" d="M131,368.3c0,1.1-0.9,2-2,2s-2-0.9-2-2s0.9-2,2-2S131,367.2,131,368.3"/>
				<path class="st3" d="M146.3,368.4c0,1.1-0.9,2-2,2s-2-0.9-2-2s0.9-2,2-2S146.3,367.3,146.3,368.4"/>
				<path class="st3" d="M161.6,368.4c0,1.1-0.9,2-2,2s-2-0.9-2-2s0.9-2,2-2S161.6,367.3,161.6,368.4"/>
				<path class="st3" d="M177,368.5c0,1.1-0.9,2-2,2s-2-0.9-2-2s0.9-2,2-2S177,367.4,177,368.5"/>
				<path class="st3" d="M46.6,379.8c0,1.1-0.9,2-2,2s-2-0.9-2-2s0.9-2,2-2S46.6,378.7,46.6,379.8"/>
				<path class="st3" d="M61.9,379.9c0,1.1-0.9,2-2,2s-2-0.9-2-2s0.9-2,2-2S61.9,378.8,61.9,379.9"/>
				<path class="st3" d="M77.3,379.9c0,1.1-0.9,2-2,2s-2-0.9-2-2s0.9-2,2-2S77.3,378.8,77.3,379.9"/>
				<path class="st3" d="M92.6,380c0,1.1-0.9,2-2,2s-2-0.9-2-2s0.9-2,2-2S92.6,378.9,92.6,380"/>
				<path class="st3" d="M107.9,380c0,1.1-0.9,2-2,2s-2-0.9-2-2s0.9-2,2-2S107.9,378.9,107.9,380"/>
				<path class="st3" d="M123.3,380.1c0,1.1-0.9,2-2,2s-2-0.9-2-2s0.9-2,2-2S123.3,379,123.3,380.1"/>
				<path class="st3" d="M138.6,380.1c0,1.1-0.9,2-2,2s-2-0.9-2-2s0.9-2,2-2S138.6,379,138.6,380.1"/>
				<path class="st3" d="M154,380.2c0,1.1-0.9,2-2,2s-2-0.9-2-2s0.9-2,2-2S154,379,154,380.2"/>
				<path class="st3" d="M169.3,380.2c0,1.1-0.9,2-2,2s-2-0.9-2-2s0.9-2,2-2S169.3,379.1,169.3,380.2"/>
				<path class="st3" d="M184.7,380.2c0,1.1-0.9,2-2,2s-2-0.9-2-2s0.9-2,2-2S184.7,379.1,184.7,380.2"/>
				<path class="st3" d="M200.3,336.3c0,1.1-0.9,2-2,2s-2-0.9-2-2s0.9-2,2-2S200.3,335.2,200.3,336.3"/>
				<path class="st3" d="M215.6,336.4c0,1.1-0.9,2-2,2s-2-0.9-2-2s0.9-2,2-2S215.6,335.3,215.6,336.4"/>
				<path class="st3" d="M230.9,336.5c0,1.1-0.9,2-2,2s-2-0.9-2-2s0.9-2,2-2S230.9,335.3,230.9,336.5"/>
				<path class="st3" d="M192.6,346.3c0,1.1-0.9,2-2,2s-2-0.9-2-2s0.9-2,2-2S192.6,345.2,192.6,346.3"/>
				<path class="st3" d="M207.9,346.4c0,1.1-0.9,2-2,2s-2-0.9-2-2s0.9-2,2-2S207.9,345.3,207.9,346.4"/>
				<path class="st3" d="M223.3,346.4c0,1.1-0.9,2-2,2s-2-0.9-2-2s0.9-2,2-2S223.3,345.3,223.3,346.4"/>
				<path class="st3" d="M238.6,346.5c0,1.1-0.9,2-2,2s-2-0.9-2-2s0.9-2,2-2S238.6,345.4,238.6,346.5"/>
				<path class="st3" d="M200.3,358.1c0,1.1-0.9,2-2,2s-2-0.9-2-2s0.9-2,2-2S200.3,357,200.3,358.1"/>
				<path class="st3" d="M215.6,358.1c0,1.1-0.9,2-2,2s-2-0.9-2-2s0.9-2,2-2S215.6,357,215.6,358.1"/>
				<path class="st3" d="M230.9,358.2c0,1.1-0.9,2-2,2s-2-0.9-2-2s0.9-2,2-2S230.9,357.1,230.9,358.2"/>
				<path class="st3" d="M192.6,368.1c0,1.1-0.9,2-2,2s-2-0.9-2-2s0.9-2,2-2S192.6,367,192.6,368.1"/>
				<path class="st3" d="M207.9,368.1c0,1.1-0.9,2-2,2s-2-0.9-2-2s0.9-2,2-2S207.9,367,207.9,368.1"/>
				<path class="st3" d="M223.3,368.2c0,1.1-0.9,2-2,2s-2-0.9-2-2s0.9-2,2-2S223.3,367.1,223.3,368.2"/>
				<path class="st3" d="M238.6,368.2c0,1.1-0.9,2-2,2s-2-0.9-2-2s0.9-2,2-2S238.6,367.1,238.6,368.2"/>
				<path class="st3" d="M200.3,379.8c0,1.1-0.9,2-2,2s-2-0.9-2-2s0.9-2,2-2S200.3,378.7,200.3,379.8"/>
				<path class="st3" d="M215.6,379.9c0,1.1-0.9,2-2,2s-2-0.9-2-2s0.9-2,2-2S215.6,378.8,215.6,379.9"/>
				<path class="st3" d="M230.9,379.9c0,1.1-0.9,2-2,2s-2-0.9-2-2s0.9-2,2-2S230.9,378.8,230.9,379.9"/>
			</g>
		</g>
	</g>
</g>
</svg>
