<svg id="圖層_1" data-name="圖層 1" xmlns="http://www.w3.org/2000/svg" viewBox="0 0 64 64"><defs><style>.cls-1,.cls-2{fill:none;stroke:#464646;stroke-linejoin:round;stroke-width:2px;}.cls-1{stroke-linecap:square;}.cls-2{stroke-linecap:round;}.cls-3{fill:#404041;}</style></defs><g id="web_form" data-name="web form"><path class="cls-1" d="M399.11,327.3h-30a4,4,0,0,1-4-4v-44a4,4,0,0,1,4-4h54a4,4,0,0,1,4,4v44a4,4,0,0,1-4,4h-2" transform="translate(-364.11 -274.3)"/><line class="cls-2" x1="1" y1="12" x2="63" y2="12"/><circle class="cls-3" cx="6.5" cy="6.5" r="1.5"/><circle class="cls-3" cx="11.5" cy="6.5" r="1.5"/><circle class="cls-3" cx="16.5" cy="6.5" r="1.5"/><rect class="cls-2" x="21" y="19" width="36" height="6"/><polyline class="cls-1" points="35 45 21 45 21 31 57 31 57 43"/><line class="cls-2" x1="7" y1="31" x2="15" y2="31"/><line class="cls-2" x1="7" y1="19" x2="15" y2="19"/><polygon class="cls-2" points="39 36 39 58 45 53 51 63 56 60 50 50 57 48 39 36"/></g></svg>