<svg id="圖層_1" data-name="圖層 1" xmlns="http://www.w3.org/2000/svg" viewBox="0 0 64 64"><defs><style>.cls-1,.cls-2{fill:none;stroke:#464646;stroke-linejoin:round;stroke-width:2px;}.cls-1{stroke-linecap:round;}.cls-2{stroke-linecap:square;}</style></defs><g id="presentation"><path class="cls-1" d="M424.11,334.3v-3l2-10v-7.14a6.06,6.06,0,0,0-1.05-3.4l-9.95-14.46" transform="translate(-364.11 -274.3)"/><path class="cls-1" d="M415.11,306.3l4,6v3a2,2,0,0,1-2,2h0a2,2,0,0,1-2-2v-9a3,3,0,0,0-3-3h0a3,3,0,0,0-3,3v10a13.48,13.48,0,0,0-1,9,10.82,10.82,0,0,0,4,6v3" transform="translate(-364.11 -274.3)"/><polyline class="cls-2" points="45 63 45 60 63 60 63 63"/><line class="cls-2" x1="46" y1="56" x2="34" y2="56"/><path class="cls-2" d="M371.11,275.3h38a6,6,0,0,1,6,6v25" transform="translate(-364.11 -274.3)"/><path class="cls-2" d="M369.11,283.3h-4v-3a5,5,0,0,1,5-5h0a5,5,0,0,1,5,5v50h24" transform="translate(-364.11 -274.3)"/><line class="cls-1" x1="37" y1="13" x2="25" y2="13"/><line class="cls-1" x1="43" y1="22" x2="19" y2="22"/><line class="cls-1" x1="40" y1="28" x2="19" y2="28"/><line class="cls-1" x1="30" y1="34" x2="19" y2="34"/></g></svg>