<svg id="圖層_1" data-name="圖層 1" xmlns="http://www.w3.org/2000/svg" viewBox="0 0 64 64"><defs><style>.cls-1,.cls-2{fill:none;stroke:#464646;stroke-linejoin:round;stroke-width:2px;}.cls-2{stroke-linecap:round;}</style></defs><g id="letter"><path class="cls-1" d="M417.25,284.44v39a4,4,0,0,1-4,4h-54a4,4,0,0,1-4-4v-39" transform="translate(-354.25 -264.44)"/><line class="cls-2" x1="7" y1="16.15" x2="1.04" y2="19.94"/><path class="cls-2" d="M396.77,271.44l-8.48-5.37a3.88,3.88,0,0,0-4.24,0l-8.43,5.37" transform="translate(-354.25 -264.44)"/><line class="cls-2" x1="62.96" y1="19.94" x2="57" y2="16.17"/><path class="cls-2" d="M417.21,297.48l-28.92,18.31a3.88,3.88,0,0,1-4.24,0l-28.76-18.31" transform="translate(-354.25 -264.44)"/><path class="cls-2" d="M361.25,295.44v-20a4,4,0,0,1,4-4h42a4,4,0,0,1,4,4v20" transform="translate(-354.25 -264.44)"/><line class="cls-2" x1="19" y1="17" x2="32" y2="17"/><line class="cls-2" x1="19" y1="25" x2="45" y2="25"/><line class="cls-2" x1="19" y1="33" x2="45" y2="33"/></g></svg>