<svg id="圖層_1" data-name="圖層 1" xmlns="http://www.w3.org/2000/svg" viewBox="0 0 64 64"><defs><style>.cls-1,.cls-2{fill:none;stroke:#464646;stroke-linejoin:round;stroke-width:2px;}.cls-1{stroke-linecap:round;}.cls-2{stroke-linecap:square;}</style></defs><g id="analysis_search_" data-name="analysis,search
"><path class="cls-1" d="M373.11,275.3h40a7,7,0,0,1,7,7v6" transform="translate(-364.11 -274.3)"/><path class="cls-2" d="M386.11,337.3h34a7,7,0,0,0,7-7h-34a7,7,0,0,1-7,7h0a7,7,0,0,1-7-7v-48a7,7,0,0,0-7-7h0a7,7,0,0,0-7,7h6" transform="translate(-364.11 -274.3)"/><g id="_Grupo_" data-name="&lt;Grupo&gt;"><circle class="cls-1" cx="43" cy="30" r="15"/><path class="cls-2" d="M421,311.44l3.78,3.78a5.13,5.13,0,0,1-7.25,7.25l-3.78-3.78" transform="translate(-364.11 -274.3)"/></g><line class="cls-1" x1="36" y1="21" x2="44" y2="21"/><line class="cls-1" x1="32" y1="30" x2="44" y2="30"/><line class="cls-1" x1="36" y1="39" x2="44" y2="39"/><line class="cls-1" x1="22" y1="23" x2="29" y2="23"/><line class="cls-1" x1="22" y1="30" x2="27" y2="30"/><line class="cls-1" x1="22" y1="37" x2="29" y2="37"/></g></svg>