<svg id="圖層_1" data-name="圖層 1" xmlns="http://www.w3.org/2000/svg" xmlns:xlink="http://www.w3.org/1999/xlink" viewBox="0 0 317.29 306.72"><defs><style>.cls-1{fill:none;}.cls-2{clip-path:url(#clip-path);}.cls-3{fill:#dadada;}</style><clipPath id="clip-path" transform="translate(0 0)"><path class="cls-1" d="M1.68,160.76A156.55,156.55,0,1,0,158.23,4.21,156.55,156.55,0,0,0,1.68,160.76"/></clipPath></defs><g class="cls-2"><path class="cls-3" d="M24.68,4.21A4.21,4.21,0,1,1,20.47,0a4.21,4.21,0,0,1,4.21,4.21" transform="translate(0 0)"/><path class="cls-3" d="M57.19,4.31A4.21,4.21,0,1,1,53,.1a4.21,4.21,0,0,1,4.21,4.21" transform="translate(0 0)"/><path class="cls-3" d="M89.71,4.41A4.22,4.22,0,1,1,85.49.19a4.21,4.21,0,0,1,4.22,4.22" transform="translate(0 0)"/><path class="cls-3" d="M122.22,4.51A4.22,4.22,0,1,1,118,.29a4.22,4.22,0,0,1,4.22,4.22" transform="translate(0 0)"/><path class="cls-3" d="M154.73,4.6A4.22,4.22,0,1,1,150.51.39a4.22,4.22,0,0,1,4.22,4.21" transform="translate(0 0)"/><path class="cls-3" d="M187.24,4.7A4.22,4.22,0,1,1,183,.49a4.21,4.21,0,0,1,4.21,4.21" transform="translate(0 0)"/><path class="cls-3" d="M219.75,4.8A4.22,4.22,0,1,1,215.54.58a4.21,4.21,0,0,1,4.21,4.22" transform="translate(0 0)"/><path class="cls-3" d="M252.26,4.89A4.22,4.22,0,1,1,248.05.68a4.21,4.21,0,0,1,4.21,4.21" transform="translate(0 0)"/><path class="cls-3" d="M284.77,5A4.22,4.22,0,1,1,280.56.78,4.21,4.21,0,0,1,284.77,5" transform="translate(0 0)"/><path class="cls-3" d="M317.28,5.09A4.21,4.21,0,1,1,313.07.87a4.2,4.2,0,0,1,4.21,4.22" transform="translate(0 0)"/><path class="cls-3" d="M8.43,25.35a4.22,4.22,0,1,1-4.22-4.21,4.21,4.21,0,0,1,4.22,4.21" transform="translate(0 0)"/><path class="cls-3" d="M40.94,25.45a4.22,4.22,0,1,1-4.21-4.22,4.22,4.22,0,0,1,4.21,4.22" transform="translate(0 0)"/><path class="cls-3" d="M73.45,25.54a4.22,4.22,0,1,1-4.21-4.21,4.22,4.22,0,0,1,4.21,4.21" transform="translate(0 0)"/><path class="cls-3" d="M106,25.64a4.22,4.22,0,1,1-4.21-4.21A4.21,4.21,0,0,1,106,25.64" transform="translate(0 0)"/><path class="cls-3" d="M138.47,25.74a4.22,4.22,0,1,1-4.21-4.22,4.2,4.2,0,0,1,4.21,4.22" transform="translate(0 0)"/><path class="cls-3" d="M171,25.84a4.21,4.21,0,1,1-4.21-4.22A4.21,4.21,0,0,1,171,25.84" transform="translate(0 0)"/><path class="cls-3" d="M203.5,25.93a4.22,4.22,0,1,1-4.22-4.21,4.22,4.22,0,0,1,4.22,4.21" transform="translate(0 0)"/><path class="cls-3" d="M236,26a4.22,4.22,0,1,1-4.22-4.21A4.21,4.21,0,0,1,236,26" transform="translate(0 0)"/><path class="cls-3" d="M268.52,26.13a4.22,4.22,0,1,1-4.22-4.22,4.21,4.21,0,0,1,4.22,4.22" transform="translate(0 0)"/><path class="cls-3" d="M301,26.22A4.22,4.22,0,1,1,296.81,22,4.22,4.22,0,0,1,301,26.22" transform="translate(0 0)"/><path class="cls-3" d="M24.68,50.26a4.21,4.21,0,1,1-4.21-4.21,4.21,4.21,0,0,1,4.21,4.21" transform="translate(0 0)"/><path class="cls-3" d="M57.19,50.36A4.21,4.21,0,1,1,53,46.14a4.2,4.2,0,0,1,4.21,4.22" transform="translate(0 0)"/><path class="cls-3" d="M89.71,50.46a4.22,4.22,0,1,1-4.22-4.22,4.22,4.22,0,0,1,4.22,4.22" transform="translate(0 0)"/><path class="cls-3" d="M122.22,50.55A4.22,4.22,0,1,1,118,46.34a4.22,4.22,0,0,1,4.22,4.21" transform="translate(0 0)"/><path class="cls-3" d="M154.73,50.65a4.22,4.22,0,1,1-4.22-4.21,4.21,4.21,0,0,1,4.22,4.21" transform="translate(0 0)"/><path class="cls-3" d="M187.24,50.75A4.22,4.22,0,1,1,183,46.53a4.22,4.22,0,0,1,4.21,4.22" transform="translate(0 0)"/><path class="cls-3" d="M219.75,50.84a4.22,4.22,0,1,1-4.21-4.21,4.22,4.22,0,0,1,4.21,4.21" transform="translate(0 0)"/><path class="cls-3" d="M252.26,50.94a4.22,4.22,0,1,1-4.21-4.21,4.21,4.21,0,0,1,4.21,4.21" transform="translate(0 0)"/><path class="cls-3" d="M284.77,51a4.22,4.22,0,1,1-4.21-4.22A4.2,4.2,0,0,1,284.77,51" transform="translate(0 0)"/><path class="cls-3" d="M317.28,51.14a4.21,4.21,0,1,1-4.21-4.22,4.21,4.21,0,0,1,4.21,4.22" transform="translate(0 0)"/><path class="cls-3" d="M8.43,71.4a4.22,4.22,0,1,1-4.22-4.22A4.22,4.22,0,0,1,8.43,71.4" transform="translate(0 0)"/><path class="cls-3" d="M40.94,71.49a4.22,4.22,0,1,1-4.21-4.21,4.22,4.22,0,0,1,4.21,4.21" transform="translate(0 0)"/><path class="cls-3" d="M73.45,71.59a4.22,4.22,0,1,1-4.21-4.21,4.22,4.22,0,0,1,4.21,4.21" transform="translate(0 0)"/><path class="cls-3" d="M106,71.69a4.22,4.22,0,1,1-4.21-4.22A4.2,4.2,0,0,1,106,71.69" transform="translate(0 0)"/><path class="cls-3" d="M138.47,71.79a4.22,4.22,0,1,1-4.21-4.22,4.21,4.21,0,0,1,4.21,4.22" transform="translate(0 0)"/><path class="cls-3" d="M171,71.88a4.21,4.21,0,1,1-4.21-4.21A4.21,4.21,0,0,1,171,71.88" transform="translate(0 0)"/><path class="cls-3" d="M203.5,72a4.22,4.22,0,1,1-4.22-4.21A4.21,4.21,0,0,1,203.5,72" transform="translate(0 0)"/><path class="cls-3" d="M236,72.08a4.22,4.22,0,1,1-4.22-4.22A4.22,4.22,0,0,1,236,72.08" transform="translate(0 0)"/><path class="cls-3" d="M268.52,72.17A4.22,4.22,0,1,1,264.3,68a4.22,4.22,0,0,1,4.22,4.21" transform="translate(0 0)"/><path class="cls-3" d="M301,72.27a4.22,4.22,0,1,1-4.22-4.21A4.22,4.22,0,0,1,301,72.27" transform="translate(0 0)"/><path class="cls-3" d="M24.68,96.31a4.21,4.21,0,1,1-4.21-4.22,4.21,4.21,0,0,1,4.21,4.22" transform="translate(0 0)"/><path class="cls-3" d="M57.19,96.4A4.21,4.21,0,1,1,53,92.19a4.21,4.21,0,0,1,4.21,4.21" transform="translate(0 0)"/><path class="cls-3" d="M89.71,96.5a4.22,4.22,0,1,1-4.22-4.21,4.22,4.22,0,0,1,4.22,4.21" transform="translate(0 0)"/><path class="cls-3" d="M122.22,96.6A4.22,4.22,0,1,1,118,92.38a4.21,4.21,0,0,1,4.22,4.22" transform="translate(0 0)"/><path class="cls-3" d="M154.73,96.7a4.22,4.22,0,1,1-4.22-4.22,4.22,4.22,0,0,1,4.22,4.22" transform="translate(0 0)"/><path class="cls-3" d="M187.24,96.79A4.22,4.22,0,1,1,183,92.58a4.22,4.22,0,0,1,4.21,4.21" transform="translate(0 0)"/><path class="cls-3" d="M219.75,96.89a4.22,4.22,0,1,1-4.21-4.21,4.22,4.22,0,0,1,4.21,4.21" transform="translate(0 0)"/><path class="cls-3" d="M252.26,97a4.22,4.22,0,1,1-4.21-4.22A4.2,4.2,0,0,1,252.26,97" transform="translate(0 0)"/><path class="cls-3" d="M284.77,97.09a4.22,4.22,0,1,1-4.21-4.22,4.21,4.21,0,0,1,4.21,4.22" transform="translate(0 0)"/><path class="cls-3" d="M317.28,97.18A4.21,4.21,0,1,1,313.07,93a4.21,4.21,0,0,1,4.21,4.21" transform="translate(0 0)"/><path class="cls-3" d="M8.43,117.44a4.22,4.22,0,1,1-4.22-4.21,4.22,4.22,0,0,1,4.22,4.21" transform="translate(0 0)"/><path class="cls-3" d="M40.94,117.54a4.22,4.22,0,1,1-4.21-4.21,4.21,4.21,0,0,1,4.21,4.21" transform="translate(0 0)"/><path class="cls-3" d="M73.45,117.64a4.22,4.22,0,1,1-4.21-4.22,4.21,4.21,0,0,1,4.21,4.22" transform="translate(0 0)"/><path class="cls-3" d="M106,117.73a4.22,4.22,0,1,1-4.21-4.21,4.21,4.21,0,0,1,4.21,4.21" transform="translate(0 0)"/><path class="cls-3" d="M138.47,117.83a4.22,4.22,0,1,1-4.21-4.21,4.21,4.21,0,0,1,4.21,4.21" transform="translate(0 0)"/><path class="cls-3" d="M171,117.93a4.21,4.21,0,1,1-4.21-4.22,4.2,4.2,0,0,1,4.21,4.22" transform="translate(0 0)"/><path class="cls-3" d="M203.5,118a4.22,4.22,0,1,1-4.22-4.22A4.22,4.22,0,0,1,203.5,118" transform="translate(0 0)"/><path class="cls-3" d="M236,118.12a4.22,4.22,0,1,1-4.22-4.21,4.22,4.22,0,0,1,4.22,4.21" transform="translate(0 0)"/><path class="cls-3" d="M268.52,118.22A4.22,4.22,0,1,1,264.3,114a4.22,4.22,0,0,1,4.22,4.21" transform="translate(0 0)"/><path class="cls-3" d="M301,118.32a4.22,4.22,0,1,1-4.22-4.22,4.21,4.21,0,0,1,4.22,4.22" transform="translate(0 0)"/><path class="cls-3" d="M24.68,142.35a4.21,4.21,0,1,1-4.21-4.21,4.21,4.21,0,0,1,4.21,4.21" transform="translate(0 0)"/><path class="cls-3" d="M57.19,142.45A4.21,4.21,0,1,1,53,138.24a4.21,4.21,0,0,1,4.21,4.21" transform="translate(0 0)"/><path class="cls-3" d="M89.71,142.55a4.22,4.22,0,1,1-4.22-4.22,4.21,4.21,0,0,1,4.22,4.22" transform="translate(0 0)"/><path class="cls-3" d="M122.22,142.65a4.22,4.22,0,1,1-4.22-4.22,4.22,4.22,0,0,1,4.22,4.22" transform="translate(0 0)"/><path class="cls-3" d="M154.73,142.74a4.22,4.22,0,1,1-4.22-4.21,4.22,4.22,0,0,1,4.22,4.21" transform="translate(0 0)"/><path class="cls-3" d="M187.24,142.84a4.22,4.22,0,1,1-4.21-4.21,4.21,4.21,0,0,1,4.21,4.21" transform="translate(0 0)"/><path class="cls-3" d="M219.75,142.94a4.22,4.22,0,1,1-4.21-4.22,4.21,4.21,0,0,1,4.21,4.22" transform="translate(0 0)"/><path class="cls-3" d="M252.26,143a4.22,4.22,0,1,1-4.21-4.21,4.21,4.21,0,0,1,4.21,4.21" transform="translate(0 0)"/><path class="cls-3" d="M284.77,143.13a4.22,4.22,0,1,1-4.21-4.21,4.21,4.21,0,0,1,4.21,4.21" transform="translate(0 0)"/><path class="cls-3" d="M317.28,143.23a4.21,4.21,0,1,1-4.21-4.22,4.2,4.2,0,0,1,4.21,4.22" transform="translate(0 0)"/><path class="cls-3" d="M8.43,163.49a4.22,4.22,0,1,1-4.22-4.21,4.21,4.21,0,0,1,4.22,4.21" transform="translate(0 0)"/><path class="cls-3" d="M40.94,163.59a4.22,4.22,0,1,1-4.21-4.22,4.22,4.22,0,0,1,4.21,4.22" transform="translate(0 0)"/><path class="cls-3" d="M73.45,163.68a4.22,4.22,0,1,1-4.21-4.21,4.22,4.22,0,0,1,4.21,4.21" transform="translate(0 0)"/><path class="cls-3" d="M106,163.78a4.22,4.22,0,1,1-4.21-4.21,4.21,4.21,0,0,1,4.21,4.21" transform="translate(0 0)"/><path class="cls-3" d="M138.47,163.88a4.22,4.22,0,1,1-4.21-4.22,4.2,4.2,0,0,1,4.21,4.22" transform="translate(0 0)"/><path class="cls-3" d="M171,164a4.21,4.21,0,1,1-4.21-4.22A4.21,4.21,0,0,1,171,164" transform="translate(0 0)"/><path class="cls-3" d="M203.5,164.07a4.22,4.22,0,1,1-4.22-4.21,4.22,4.22,0,0,1,4.22,4.21" transform="translate(0 0)"/><path class="cls-3" d="M236,164.17a4.22,4.22,0,1,1-4.22-4.21,4.22,4.22,0,0,1,4.22,4.21" transform="translate(0 0)"/><path class="cls-3" d="M268.52,164.27a4.22,4.22,0,1,1-4.22-4.22,4.21,4.21,0,0,1,4.22,4.22" transform="translate(0 0)"/><path class="cls-3" d="M301,164.37a4.22,4.22,0,1,1-4.22-4.22,4.22,4.22,0,0,1,4.22,4.22" transform="translate(0 0)"/><path class="cls-3" d="M24.68,188.4a4.21,4.21,0,1,1-4.21-4.21,4.21,4.21,0,0,1,4.21,4.21" transform="translate(0 0)"/><path class="cls-3" d="M57.19,188.5A4.21,4.21,0,1,1,53,184.28a4.2,4.2,0,0,1,4.21,4.22" transform="translate(0 0)"/><path class="cls-3" d="M89.71,188.6a4.22,4.22,0,1,1-4.22-4.22,4.22,4.22,0,0,1,4.22,4.22" transform="translate(0 0)"/><path class="cls-3" d="M122.22,188.69a4.22,4.22,0,1,1-4.22-4.21,4.22,4.22,0,0,1,4.22,4.21" transform="translate(0 0)"/><path class="cls-3" d="M154.73,188.79a4.22,4.22,0,1,1-4.22-4.21,4.21,4.21,0,0,1,4.22,4.21" transform="translate(0 0)"/><path class="cls-3" d="M187.24,188.89a4.22,4.22,0,1,1-4.21-4.22,4.21,4.21,0,0,1,4.21,4.22" transform="translate(0 0)"/><path class="cls-3" d="M219.75,189a4.22,4.22,0,1,1-4.21-4.21,4.22,4.22,0,0,1,4.21,4.21" transform="translate(0 0)"/><path class="cls-3" d="M252.26,189.08a4.22,4.22,0,1,1-4.21-4.21,4.21,4.21,0,0,1,4.21,4.21" transform="translate(0 0)"/><path class="cls-3" d="M284.77,189.18a4.22,4.22,0,1,1-4.21-4.22,4.2,4.2,0,0,1,4.21,4.22" transform="translate(0 0)"/><path class="cls-3" d="M317.28,189.28a4.21,4.21,0,1,1-4.21-4.22,4.21,4.21,0,0,1,4.21,4.22" transform="translate(0 0)"/><path class="cls-3" d="M8.43,209.54a4.22,4.22,0,1,1-4.22-4.22,4.22,4.22,0,0,1,4.22,4.22" transform="translate(0 0)"/><path class="cls-3" d="M40.94,209.63a4.22,4.22,0,1,1-4.21-4.21,4.22,4.22,0,0,1,4.21,4.21" transform="translate(0 0)"/><path class="cls-3" d="M73.45,209.73a4.22,4.22,0,1,1-4.21-4.21,4.22,4.22,0,0,1,4.21,4.21" transform="translate(0 0)"/><path class="cls-3" d="M106,209.83a4.22,4.22,0,1,1-4.21-4.22,4.2,4.2,0,0,1,4.21,4.22" transform="translate(0 0)"/><path class="cls-3" d="M138.47,209.93a4.22,4.22,0,1,1-4.21-4.22,4.21,4.21,0,0,1,4.21,4.22" transform="translate(0 0)"/><path class="cls-3" d="M171,210a4.21,4.21,0,1,1-4.21-4.21A4.21,4.21,0,0,1,171,210" transform="translate(0 0)"/><path class="cls-3" d="M203.5,210.12a4.22,4.22,0,1,1-4.22-4.21,4.21,4.21,0,0,1,4.22,4.21" transform="translate(0 0)"/><path class="cls-3" d="M236,210.22a4.22,4.22,0,1,1-4.22-4.22,4.22,4.22,0,0,1,4.22,4.22" transform="translate(0 0)"/><path class="cls-3" d="M268.52,210.31a4.22,4.22,0,1,1-4.22-4.21,4.22,4.22,0,0,1,4.22,4.21" transform="translate(0 0)"/><path class="cls-3" d="M301,210.41a4.22,4.22,0,1,1-4.22-4.21,4.22,4.22,0,0,1,4.22,4.21" transform="translate(0 0)"/><path class="cls-3" d="M24.68,234.45a4.21,4.21,0,1,1-4.21-4.22,4.2,4.2,0,0,1,4.21,4.22" transform="translate(0 0)"/><path class="cls-3" d="M57.19,234.54A4.21,4.21,0,1,1,53,230.33a4.21,4.21,0,0,1,4.21,4.21" transform="translate(0 0)"/><path class="cls-3" d="M89.71,234.64a4.22,4.22,0,1,1-4.22-4.21,4.22,4.22,0,0,1,4.22,4.21" transform="translate(0 0)"/><path class="cls-3" d="M122.22,234.74a4.22,4.22,0,1,1-4.22-4.21,4.21,4.21,0,0,1,4.22,4.21" transform="translate(0 0)"/><path class="cls-3" d="M154.73,234.84a4.22,4.22,0,1,1-4.22-4.22,4.22,4.22,0,0,1,4.22,4.22" transform="translate(0 0)"/><path class="cls-3" d="M187.24,234.93a4.22,4.22,0,1,1-4.21-4.21,4.22,4.22,0,0,1,4.21,4.21" transform="translate(0 0)"/><path class="cls-3" d="M219.75,235a4.22,4.22,0,1,1-4.21-4.21,4.22,4.22,0,0,1,4.21,4.21" transform="translate(0 0)"/><path class="cls-3" d="M252.26,235.13a4.22,4.22,0,1,1-4.21-4.22,4.2,4.2,0,0,1,4.21,4.22" transform="translate(0 0)"/><path class="cls-3" d="M284.77,235.23a4.22,4.22,0,1,1-4.21-4.22,4.21,4.21,0,0,1,4.21,4.22" transform="translate(0 0)"/><path class="cls-3" d="M317.28,235.32a4.21,4.21,0,1,1-4.21-4.21,4.21,4.21,0,0,1,4.21,4.21" transform="translate(0 0)"/><path class="cls-3" d="M8.43,255.58a4.22,4.22,0,1,1-4.22-4.21,4.22,4.22,0,0,1,4.22,4.21" transform="translate(0 0)"/><path class="cls-3" d="M40.94,255.68a4.22,4.22,0,1,1-4.21-4.21,4.22,4.22,0,0,1,4.21,4.21" transform="translate(0 0)"/><path class="cls-3" d="M73.45,255.78a4.22,4.22,0,1,1-4.21-4.22,4.21,4.21,0,0,1,4.21,4.22" transform="translate(0 0)"/><path class="cls-3" d="M106,255.87a4.22,4.22,0,1,1-4.21-4.21,4.21,4.21,0,0,1,4.21,4.21" transform="translate(0 0)"/><path class="cls-3" d="M138.47,256a4.22,4.22,0,1,1-4.21-4.21,4.21,4.21,0,0,1,4.21,4.21" transform="translate(0 0)"/><path class="cls-3" d="M171,256.07a4.21,4.21,0,1,1-4.21-4.21,4.2,4.2,0,0,1,4.21,4.21" transform="translate(0 0)"/><path class="cls-3" d="M203.5,256.17a4.22,4.22,0,1,1-4.22-4.22,4.22,4.22,0,0,1,4.22,4.22" transform="translate(0 0)"/><path class="cls-3" d="M236,256.26a4.22,4.22,0,1,1-4.22-4.21,4.22,4.22,0,0,1,4.22,4.21" transform="translate(0 0)"/><path class="cls-3" d="M268.52,256.36a4.22,4.22,0,1,1-4.22-4.21,4.22,4.22,0,0,1,4.22,4.21" transform="translate(0 0)"/><path class="cls-3" d="M301,256.46a4.22,4.22,0,1,1-4.22-4.22,4.21,4.21,0,0,1,4.22,4.22" transform="translate(0 0)"/><path class="cls-3" d="M24.68,280.49a4.21,4.21,0,1,1-4.21-4.21,4.21,4.21,0,0,1,4.21,4.21" transform="translate(0 0)"/><path class="cls-3" d="M57.19,280.59A4.21,4.21,0,1,1,53,276.38a4.21,4.21,0,0,1,4.21,4.21" transform="translate(0 0)"/><path class="cls-3" d="M89.71,280.69a4.22,4.22,0,1,1-4.22-4.22,4.21,4.21,0,0,1,4.22,4.22" transform="translate(0 0)"/><path class="cls-3" d="M122.22,280.79a4.22,4.22,0,1,1-4.22-4.22,4.22,4.22,0,0,1,4.22,4.22" transform="translate(0 0)"/><path class="cls-3" d="M154.73,280.88a4.22,4.22,0,1,1-4.22-4.21,4.22,4.22,0,0,1,4.22,4.21" transform="translate(0 0)"/><path class="cls-3" d="M187.24,281a4.22,4.22,0,1,1-4.21-4.21,4.22,4.22,0,0,1,4.21,4.21" transform="translate(0 0)"/><path class="cls-3" d="M219.75,281.08a4.22,4.22,0,1,1-4.21-4.22,4.22,4.22,0,0,1,4.21,4.22" transform="translate(0 0)"/><path class="cls-3" d="M252.26,281.18a4.22,4.22,0,1,1-4.21-4.22,4.21,4.21,0,0,1,4.21,4.22" transform="translate(0 0)"/><path class="cls-3" d="M284.77,281.27a4.22,4.22,0,1,1-4.21-4.21,4.21,4.21,0,0,1,4.21,4.21" transform="translate(0 0)"/><path class="cls-3" d="M317.28,281.37a4.21,4.21,0,1,1-4.21-4.22,4.2,4.2,0,0,1,4.21,4.22" transform="translate(0 0)"/><path class="cls-3" d="M8.43,301.63a4.22,4.22,0,1,1-4.22-4.21,4.21,4.21,0,0,1,4.22,4.21" transform="translate(0 0)"/><path class="cls-3" d="M40.94,301.73a4.22,4.22,0,1,1-4.21-4.22,4.21,4.21,0,0,1,4.21,4.22" transform="translate(0 0)"/><path class="cls-3" d="M73.45,301.83a4.22,4.22,0,1,1-4.21-4.22,4.22,4.22,0,0,1,4.21,4.22" transform="translate(0 0)"/><path class="cls-3" d="M106,301.92a4.22,4.22,0,1,1-4.21-4.21,4.21,4.21,0,0,1,4.21,4.21" transform="translate(0 0)"/><path class="cls-3" d="M138.47,302a4.22,4.22,0,1,1-4.21-4.22,4.2,4.2,0,0,1,4.21,4.22" transform="translate(0 0)"/><path class="cls-3" d="M171,302.12a4.21,4.21,0,1,1-4.21-4.22,4.21,4.21,0,0,1,4.21,4.22" transform="translate(0 0)"/><path class="cls-3" d="M203.5,302.21a4.22,4.22,0,1,1-4.22-4.21,4.22,4.22,0,0,1,4.22,4.21" transform="translate(0 0)"/><path class="cls-3" d="M236,302.31a4.22,4.22,0,1,1-4.22-4.21,4.22,4.22,0,0,1,4.22,4.21" transform="translate(0 0)"/><path class="cls-3" d="M268.52,302.41a4.22,4.22,0,1,1-4.22-4.22,4.21,4.21,0,0,1,4.22,4.22" transform="translate(0 0)"/><path class="cls-3" d="M301,302.5a4.22,4.22,0,1,1-4.22-4.21A4.22,4.22,0,0,1,301,302.5" transform="translate(0 0)"/></g></svg>