<svg id="圖層_1" data-name="圖層 1" xmlns="http://www.w3.org/2000/svg" xmlns:xlink="http://www.w3.org/1999/xlink" viewBox="0 0 886.3 82.46"><defs><style>.cls-1{fill:none;}.cls-2{fill:#444;}.cls-3{clip-path:url(#clip-path);}.cls-4{fill:#41a9a5;}.cls-5{fill:#72c1bb;}.cls-6{fill:#c3e5e2;}</style><clipPath id="clip-path" transform="translate(0 0)"><rect class="cls-1" width="886.3" height="82.46"/></clipPath></defs><polygon class="cls-2" points="163.09 0 163.09 55.15 127.87 0 113.11 0 113.11 80.57 127.66 80.57 127.66 26.05 162.77 80.57 177.75 80.57 177.75 0 163.09 0"/><g class="cls-3"><path class="cls-2" d="M219.36,76.15q-6.2-6-6.19-18.27V48.45c0-7.57,2.16-13.56,6.58-17.79s10.12-6.38,17.3-6.38,13,2.06,17.39,6.28S261,40.78,261,48.45v10H226.63c.1,4.42,1.08,7.46,2.85,9.23s4.72,2.66,8.75,2.66A11.54,11.54,0,0,0,245,68.59a10.26,10.26,0,0,0,3.74-5l11.79,5.2c-1.08,3.25-3.34,6.19-6.78,9s-8.75,4.33-15.82,4.33c-8.25,0-14.44-2-18.57-6m9.92-37c-1.67,2.06-2.55,5-2.65,8.94h20.73c0-3.83-.88-6.78-2.55-8.84s-4.42-3.05-7.86-3.05-6,1-7.67,3" transform="translate(0 0)"/><polygon class="cls-2" points="312.6 63.58 302.29 80.57 286.86 80.57 305.53 52.77 287.84 25.75 303.27 25.75 312.8 41.37 322.43 25.75 337.85 25.75 319.87 52.28 338.84 80.57 323.51 80.57 312.6 63.58"/><path class="cls-2" d="M383,80.57c-4.22,0-7.27-1.27-9.33-3.73s-3.05-5.8-3.05-9.92V37.54h-7V25.75h7V12.09h13.36V25.75h9.63V37.54h-9.63V63.77a5.73,5.73,0,0,0,1,3.64,3.61,3.61,0,0,0,3,1.37h5.6V80.57Z" transform="translate(0 0)"/><path class="cls-2" d="M475.7,76c-4.52-4-6.78-9.53-6.88-16.41h13.76a8.92,8.92,0,0,0,3.44,7c2.26,1.87,5.89,2.75,11.1,2.75,4.91,0,8.45-.88,10.61-2.55a8.06,8.06,0,0,0,3.14-6.58,7.8,7.8,0,0,0-3.14-6.78q-3.24-2.22-14.15-4.72c-9.14-2.06-15.23-4.91-18.47-8.45S470.2,32,470.2,26.24a21.1,21.1,0,0,1,6.68-15.62q6.63-6.48,20-6.49c8.45,0,14.84,2.07,19.26,6.19s6.58,9.44,6.68,15.82H508.91a8.93,8.93,0,0,0-2.85-6.48c-2-1.87-5.11-2.85-9.43-2.85-4.13,0-7.17.79-9.24,2.36a7.72,7.72,0,0,0-3,6.58,7.22,7.22,0,0,0,2.85,6c1.86,1.48,6.77,3.25,14.54,5.11,8.55,2,14.54,4.72,18.08,8.16s5.2,8.45,5.2,14.93a20.89,20.89,0,0,1-6.78,15.72c-4.52,4.32-11.49,6.49-21,6.49q-14.89,0-21.52-6.19" transform="translate(0 0)"/><path class="cls-2" d="M560.3,75.76c-4.23-4.32-6.39-10.32-6.39-18V47.36q0-10.45,6.48-16.8c4.33-4.22,10.12-6.28,17.3-6.28,6.09,0,11,1.47,14.73,4.32A20.11,20.11,0,0,1,599.79,39l-12.28,5.51a14.16,14.16,0,0,0-3.63-6,9.08,9.08,0,0,0-5.9-2c-3.44,0-6,1.08-7.76,3.24s-2.65,5.6-2.65,10.12v5.4c0,5.21.88,8.85,2.75,11.11a9.11,9.11,0,0,0,7.56,3.43,8.29,8.29,0,0,0,6.29-2.06,12.73,12.73,0,0,0,3.54-6.09L600,66.82a20.33,20.33,0,0,1-7,10.81c-3.63,3-8.64,4.61-15,4.61q-11.34,0-17.68-6.48" transform="translate(0 0)"/><path class="cls-2" d="M644.3,80.57H630.74V5.51H644.3V30.86a18.45,18.45,0,0,1,5.41-4.52,16.54,16.54,0,0,1,8.94-2.16c5.5,0,9.92,1.77,13.26,5.21s4.91,8.35,4.91,14.34V80.57H663.46V45.5c0-2.85-.69-5.11-2.16-6.68a8.2,8.2,0,0,0-6-2.26,12.72,12.72,0,0,0-6.78,2,12,12,0,0,0-4.23,4Z" transform="translate(0 0)"/><path class="cls-2" d="M753.6,55.46c0,6.78-3.77,13.48-8,18s-5.79,8.78-13.16,8.78c-7.57,0-13.37-2.06-17.59-6.28s-6.29-10-6.29-17.49V47.27c0-6.69,2.16-12.19,6.39-16.51s10-6.48,17.39-6.48M724.67,39.8c-1.67,2.16-2.45,6-2.45,11.49v4.33c0,5.2.78,8.84,2.45,11s4.13,3.24,7.67,3.24,6.19-1.17,7.66-3.43,5.6-3,5.6-8l1-6c0-5.31-5.12-10.3-6.7-12.56s-4.12-3.34-7.66-3.34-6,1.08-7.57,3.24" transform="translate(0 0)"/><path class="cls-2" d="M830.6,55.46c0,6.78-3.77,13.48-8,18s-5.79,8.78-13.16,8.78c-7.57,0-13.37-2.06-17.59-6.28s-6.29-10-6.29-17.49V47.27c0-6.69,2.16-12.19,6.39-16.51s10-6.48,17.39-6.48M801.67,39.8c-1.67,2.16-2.45,6-2.45,11.49v4.33c0,5.2.78,8.84,2.45,11s4.13,3.24,7.67,3.24,6.19-1.17,7.66-3.43,5.6-3,5.6-8l1-6c0-5.31-5.12-10.3-6.7-12.56s-4.12-3.34-7.66-3.34-6,1.08-7.57,3.24" transform="translate(0 0)"/><path class="cls-2" d="M876.38,80.57A11.78,11.78,0,0,1,867.44,77c-2.26-2.36-3.44-5.6-3.44-9.83V5.51h13.36V63.87a4.71,4.71,0,0,0,1,3.24,3.44,3.44,0,0,0,2.95,1.18h5V80.57Z" transform="translate(0 0)"/><polygon class="cls-4" points="287.6 25.46 303.6 25.46 312.6 41.46 319.6 52.46 302.6 80.46 286.6 80.46 304.6 52.46 287.6 25.46"/><polygon class="cls-5" points="728.6 24.46 744.6 24.46 753.6 41.33 760.6 52.93 743.6 82.46 727.6 82.46 745.6 52.93 728.6 24.46"/><polygon class="cls-6" points="805.6 24.46 821.6 24.46 830.6 41.33 837.6 52.93 820.6 82.46 804.6 82.46 822.6 52.93 805.6 24.46"/><polygon class="cls-4" points="54.75 23.46 66.67 23.46 73.38 35.39 78.6 43.59 65.93 64.46 54 64.46 67.42 43.59 54.75 23.46"/><polygon class="cls-5" points="27.75 23.46 39.67 23.46 46.38 35.39 51.6 43.59 38.93 64.46 27 64.46 40.42 43.59 27.75 23.46"/><polygon class="cls-6" points="0.75 23.46 12.67 23.46 19.38 35.39 24.6 43.59 11.93 64.46 0 64.46 13.42 43.59 0.75 23.46"/></g></svg>