<svg id="圖層_1" data-name="圖層 1" xmlns="http://www.w3.org/2000/svg" viewBox="0 0 588.9 62.8"><defs><style>.cls-1{fill:#b8f2f0;}</style></defs><polygon class="cls-1" points="38.07 0 38.07 42.01 11.24 0 0 0 0 61.37 11.08 61.37 11.08 19.84 37.82 61.37 49.23 61.37 49.23 0 38.07 0"/><path class="cls-1" d="M80.92,58q-4.73-4.57-4.71-13.92V36.9c0-5.77,1.64-10.33,5-13.55s7.71-4.86,13.18-4.86,9.9,1.57,13.24,4.78,5,7.79,5,13.63v7.62H86.46c.08,3.36.82,5.68,2.17,7s3.6,2,6.66,2a8.76,8.76,0,0,0,5.16-1.33,7.79,7.79,0,0,0,2.85-3.81l9,4a15.14,15.14,0,0,1-5.16,6.86c-2.62,2.14-6.67,3.29-12,3.29q-9.44,0-14.15-4.57M88.5,29.78c-1.27,1.57-1.94,3.81-2,6.81h15.79a10.49,10.49,0,0,0-1.94-6.73c-1.28-1.57-3.37-2.32-6-2.32s-4.57.76-5.84,2.28"/><polygon class="cls-1" points="151.94 48.42 144.09 61.37 132.34 61.37 146.56 40.19 133.08 19.61 144.83 19.61 152.09 31.51 159.43 19.61 171.17 19.61 157.48 39.82 171.93 61.37 160.25 61.37 151.94 48.42"/><path class="cls-1" d="M205.56,61.36c-3.22,0-5.54-1-7.11-2.84A11.4,11.4,0,0,1,196.13,51V28.6H190.8v-9h5.33V9.2H206.3V19.6h7.34v9H206.3v20a4.41,4.41,0,0,0,.77,2.77,2.7,2.7,0,0,0,2.28,1h4.27v9Z"/><path class="cls-1" d="M276.16,57.88c-3.44-3-5.16-7.25-5.24-12.49H281.4A6.82,6.82,0,0,0,284,50.72c1.72,1.42,4.49,2.09,8.46,2.09,3.74,0,6.43-.67,8.08-1.94a6.14,6.14,0,0,0,2.39-5,6,6,0,0,0-2.39-5.17q-2.47-1.68-10.78-3.59c-7-1.57-11.6-3.74-14.07-6.44A15.31,15.31,0,0,1,272,20a16.08,16.08,0,0,1,5.09-11.89q5.06-4.94,15.23-4.95c6.44,0,11.31,1.58,14.67,4.72a16.07,16.07,0,0,1,5.09,12.05H301.46A6.86,6.86,0,0,0,299.29,15c-1.53-1.42-3.9-2.17-7.19-2.17s-5.46.6-7,1.8a5.86,5.86,0,0,0-2.29,5A5.52,5.52,0,0,0,285,24.17c1.42,1.13,5.16,2.48,11.08,3.89,6.51,1.53,11.07,3.6,13.77,6.22s4,6.43,4,11.37a15.88,15.88,0,0,1-5.17,12c-3.44,3.29-8.75,5-16,5q-11.34,0-16.39-4.72"/><path class="cls-1" d="M340.6,57.7c-3.22-3.29-4.87-7.86-4.87-13.71V36.07q0-8,4.94-12.8c3.29-3.21,7.7-4.78,13.17-4.78,4.64,0,8.38,1.12,11.22,3.29a15.29,15.29,0,0,1,5.61,7.92l-9.35,4.2a10.76,10.76,0,0,0-2.76-4.57,6.93,6.93,0,0,0-4.5-1.52,7.15,7.15,0,0,0-5.91,2.46c-1.34,1.65-2,4.27-2,7.71v4.11c0,4,.67,6.75,2.1,8.47A7,7,0,0,0,354,53.17a6.35,6.35,0,0,0,4.79-1.57A9.7,9.7,0,0,0,361.49,47l9.36,3.93a15.39,15.39,0,0,1-5.33,8.24c-2.76,2.28-6.58,3.51-11.42,3.51q-8.64,0-13.47-4.94"/><path class="cls-1" d="M404.58,61.36H394.25V4.2h10.33V23.5a14.07,14.07,0,0,1,4.12-3.44,12.58,12.58,0,0,1,6.81-1.64,13.46,13.46,0,0,1,10.09,4c2.55,2.62,3.74,6.36,3.74,10.93V61.4H419.17V34.65a7.17,7.17,0,0,0-1.65-5.08A6.24,6.24,0,0,0,413,27.84a9.64,9.64,0,0,0-5.16,1.53,9.08,9.08,0,0,0-3.22,3Z"/><path class="cls-1" d="M487.82,42.24c0,5.16-2.87,10.27-6.09,13.71s-4.41,6.69-10,6.69c-5.77,0-10.19-1.57-13.4-4.79s-4.79-7.61-4.79-13.32V36a17.2,17.2,0,0,1,4.87-12.57c3.22-3.29,7.61-4.94,13.24-4.94m-5.84,11.82c-1.27,1.65-1.87,4.57-1.87,8.75v3.3c0,4,.6,6.73,1.87,8.38s3.14,2.47,5.84,2.47,4.72-.89,5.83-2.62,4.27-2.28,4.27-6.09l.76-4.57c0-4-3.9-7.84-5.1-9.56s-3.14-2.55-5.84-2.55-4.57.82-5.76,2.47"/><path class="cls-1" d="M546.47,42.24c0,5.16-2.87,10.27-6.09,13.71s-4.38,6.65-10,6.65S520.17,61,517,57.81s-4.79-7.61-4.79-13.32V36A17.23,17.23,0,0,1,517,23.43c3.22-3.29,7.62-4.94,13.25-4.94m-5.84,11.82c-1.28,1.65-1.87,4.57-1.87,8.75v3.3c0,4,.59,6.73,1.87,8.38s3.14,2.47,5.84,2.47,4.71-.89,5.83-2.62,4.27-2.28,4.27-6.09l.76-4.57c0-4-3.9-7.84-5.1-9.56s-3.14-2.55-5.84-2.55-4.57.82-5.76,2.47"/><path class="cls-1" d="M581.34,61.36a9,9,0,0,1-6.81-2.71,10.39,10.39,0,0,1-2.62-7.49v-47h10.17V48.6a3.56,3.56,0,0,0,.77,2.47,2.58,2.58,0,0,0,2.24.9h3.81v9.35Z"/><polygon class="cls-1" points="132.9 19.39 145.09 19.39 151.94 31.58 157.27 39.96 144.32 61.28 132.14 61.28 145.85 39.96 132.9 19.39"/><polygon class="cls-1" points="468.78 18.63 480.97 18.63 487.82 31.48 493.16 40.31 480.21 62.8 468.02 62.8 481.73 40.31 468.78 18.63"/><polygon class="cls-1" points="527.43 18.63 539.62 18.63 546.47 31.48 551.8 40.31 538.86 62.8 526.67 62.8 540.38 40.31 527.43 18.63"/></svg>