<svg id="圖層_1" data-name="圖層 1" xmlns="http://www.w3.org/2000/svg" viewBox="0 0 51 60.35"><defs><style>.cls-1,.cls-2{fill:#fff;}.cls-1{fill-rule:evenodd;}</style></defs><path class="cls-1" d="M0,39.24v-4H51v4Zm0-17H51v4H0Zm0-14H51v4H0Z"/><path class="cls-2" d="M2.69,60.13h-2V49.37h2l3,6.26,3-6.26h2V60.13h-2V53.49l-2.2,4.75H5L2.7,53.57Z"/><path class="cls-2" d="M23.46,60.13h-7.3V49.37h7.11v1.87H18.13v2.49h4.55v1.89H18.13v2.62h5.33Z"/><path class="cls-2" d="M30.18,60.13H28.24V49.37h2L35,56.73V49.37h2V60.13H35l-4.69-7.28Z"/><path class="cls-2" d="M43.27,59.45a3.1,3.1,0,0,1-1.11-2.58v-7.5h2v7.18A1.76,1.76,0,0,0,44.74,58a2.36,2.36,0,0,0,1.58.49A2.21,2.21,0,0,0,47.88,58a1.88,1.88,0,0,0,.52-1.45V49.37h2v7.49a3.48,3.48,0,0,1-1,2.48,4.18,4.18,0,0,1-3.12,1A4.47,4.47,0,0,1,43.27,59.45Z"/></svg>